# Blender v2.76 (sub 0) OBJ File: ''
# www.blender.org
o Cube_Cube.001
v -0.604579 -0.782566 1.959522
v -0.822643 -0.782566 1.450514
v -0.713611 -0.782566 1.891328
v -0.793428 -0.782566 1.705018
v -0.822643 -0.782566 -1.226401
v -0.604579 -0.782566 -1.735396
v -0.793428 -0.782566 -1.480899
v -0.713611 -0.782566 -1.667204
v 0.539718 -0.782566 -1.735396
v 0.757782 -0.782566 -1.226401
v 0.648750 -0.782566 -1.667204
v 0.728567 -0.782566 -1.480899
v -0.604579 0.094169 1.261615
v -0.822643 0.087960 0.628214
v -0.713611 0.093337 1.176756
v -0.793428 0.091064 0.944915
v 0.757782 0.087960 0.628215
v 0.539718 0.094169 1.261615
v 0.728567 0.091064 0.944915
v 0.648750 0.093337 1.176756
v -0.822643 -0.531334 1.443930
v -0.604579 -0.520129 1.952646
v -0.793428 -0.525725 1.698287
v -0.713611 -0.521624 1.884490
v -0.822643 -0.302329 1.392206
v -0.604579 -0.258046 1.893460
v -0.793428 -0.280174 1.642827
v -0.713611 -0.263966 1.826299
v -0.822643 -0.161285 1.279868
v -0.604579 -0.048238 1.726379
v -0.793428 -0.104754 1.503112
v -0.713611 -0.063376 1.666547
v -0.822643 0.063345 0.763872
v -0.604579 0.051333 1.497680
v -0.793428 0.057340 1.130771
v -0.713611 0.052944 1.399363
v 0.757782 -0.782566 1.450514
v 0.539718 -0.782566 1.959522
v 0.728567 -0.782566 1.705018
v 0.648750 -0.782566 1.891328
v 0.539718 0.051313 1.497761
v 0.757782 0.063231 0.764474
v 0.648750 0.052908 1.399525
v 0.728567 0.057270 1.131123
v 0.757782 -0.161369 1.279987
v 0.539718 -0.048349 1.726535
v 0.728567 -0.104867 1.503272
v 0.648750 -0.063499 1.666719
v 0.757782 -0.302537 1.392298
v 0.539718 -0.258230 1.893539
v 0.728567 -0.280396 1.642924
v 0.648750 -0.264179 1.826391
v 0.757782 -0.531447 1.443940
v 0.539718 -0.520220 1.952653
v 0.728567 -0.525840 1.698297
v 0.648750 -0.521730 1.884499
v -0.822643 0.077278 -0.461581
v -0.604579 0.072114 -0.988447
v -0.793428 0.074696 -0.725014
v -0.713611 0.072806 -0.917861
v -0.822643 0.022675 -0.476537
v -0.604579 0.036684 -1.199450
v -0.804461 0.029359 -0.853688
v -0.713611 0.053564 -1.032451
v -0.822643 -0.172887 -1.018072
v -0.604579 -0.028902 -1.407605
v -0.793428 -0.100890 -1.212829
v -0.713611 -0.048188 -1.355408
v -0.822643 -0.240144 -1.110210
v -0.604579 -0.161928 -1.589807
v -0.793428 -0.201017 -1.349992
v -0.713611 -0.172388 -1.525537
v -0.822643 -0.390256 -1.191321
v -0.604579 -0.359281 -1.696421
v -0.793428 -0.374758 -1.443868
v -0.713611 -0.363421 -1.628747
v -0.822643 -0.579974 -1.222446
v -0.604579 -0.571803 -1.731281
v -0.793428 -0.575884 -1.476863
v -0.713611 -0.572894 -1.663110
v 0.539718 0.072114 -0.988447
v 0.757782 0.077278 -0.461580
v 0.648750 0.072806 -0.917860
v 0.728567 0.074696 -0.725014
v 0.757782 -0.580041 -1.222450
v 0.539718 -0.571857 -1.731285
v 0.728567 -0.575953 -1.476868
v 0.648750 -0.572957 -1.663114
v 0.757782 -0.390408 -1.191371
v 0.539718 -0.359423 -1.696464
v 0.728567 -0.374925 -1.443920
v 0.648750 -0.363584 -1.628797
v 0.757782 -0.240418 -1.110455
v 0.539718 -0.162196 -1.590041
v 0.728567 -0.201326 -1.350264
v 0.648750 -0.172695 -1.525805
v 0.757782 -0.172909 -1.018099
v 0.539718 -0.028965 -1.407741
v 0.728567 -0.100941 -1.212930
v 0.648750 -0.048254 -1.355548
v 0.757782 0.042220 -0.513828
v 0.539718 0.036672 -1.199504
v 0.733005 0.028478 -0.862417
v 0.648750 0.053529 -1.032652
v -0.570199 0.492101 0.996522
v -0.742545 0.552758 0.637908
v -0.674809 0.508354 0.900432
v -0.768769 0.602893 0.271870
v -0.544653 0.733746 0.703625
v -0.739058 0.673620 0.491334
v -0.655174 0.717636 0.646742
v -0.528922 0.879011 0.394179
v -0.726748 0.787293 0.249184
v -0.640359 0.854435 0.355328
v -0.765091 0.694353 0.113062
v -0.523610 0.922312 0.080077
v -0.724167 0.808332 0.096570
v -0.635779 0.891771 0.084496
v -0.528922 0.861985 -0.226612
v -0.726884 0.777483 -0.060263
v -0.640396 0.839343 -0.182039
v -0.774755 0.594919 -0.068327
v -0.544653 0.700349 -0.514100
v -0.739521 0.647634 -0.291214
v -0.655298 0.686224 -0.454378
v -0.795530 0.377264 -0.286307
v -0.570199 0.443616 -0.771341
v -0.762681 0.410440 -0.528824
v -0.680205 0.434726 -0.706358
v 0.730576 0.377256 -0.286315
v 0.505339 0.443616 -0.771340
v 0.697774 0.410436 -0.528828
v 0.615332 0.434725 -0.706359
v 0.709895 0.594919 -0.068327
v 0.479792 0.700349 -0.514100
v 0.674661 0.647634 -0.291214
v 0.590437 0.686224 -0.454378
v 0.464061 0.861985 -0.226612
v 0.662023 0.777483 -0.060263
v 0.575535 0.839343 -0.182039
v 0.700230 0.694353 0.113062
v 0.458749 0.922312 0.080077
v 0.659307 0.808332 0.096570
v 0.570919 0.891771 0.084496
v 0.464061 0.879011 0.394179
v 0.661888 0.787293 0.249184
v 0.575499 0.854435 0.355328
v 0.479793 0.733746 0.703625
v 0.674198 0.673620 0.491334
v 0.590313 0.717636 0.646742
v 0.708821 0.613413 0.279297
v 0.505339 0.492101 0.996523
v 0.677685 0.552757 0.637910
v 0.609949 0.508353 0.900432
vt 0.958096 0.446458
vt 0.704194 0.446458
vt 0.704194 0.406052
vt 0.958097 0.360428
vt 0.704195 0.360464
vt 0.704195 0.311953
vt 0.958097 0.311920
vt 0.704195 0.273938
vt 0.027245 0.283498
vt 0.031074 0.266792
vt 0.278399 0.266792
vt 0.430790 0.239758
vt 0.443651 0.232868
vt 0.366072 0.476528
vt 0.711824 0.156973
vt 0.717492 0.091037
vt 0.944801 0.091037
vt 0.025126 0.466623
vt 0.022760 0.407729
vt 0.270086 0.407769
vt 0.022091 0.350546
vt 0.269416 0.350627
vt 0.023912 0.308299
vt 0.271235 0.308320
vt 0.037584 0.158599
vt 0.028099 0.524007
vt 0.272452 0.466638
vt 0.274569 0.283503
vt 0.958097 0.406037
vt 0.950469 0.156973
vt 0.958097 0.243784
vt 0.704195 0.243784
vt 0.023208 0.943506
vt 0.086997 0.769928
vt 0.023800 1.000000
vt 0.720983 0.038033
vt 0.941311 0.038033
vt 0.722161 0.000000
vt 0.940132 0.000000
vt 0.270559 0.000000
vt 0.266269 0.026680
vt 0.051648 0.026680
vt 0.266097 0.080232
vt 0.044676 0.080232
vt 0.270048 0.158599
vt 0.958097 0.273927
vt 0.207314 0.764066
vt 0.194361 0.757168
vt 0.224957 0.754905
vt 0.662292 0.236293
vt 0.662292 0.212516
vt 0.680002 0.235406
vt 0.680002 0.263851
vt 0.396073 0.240206
vt 0.413693 0.230767
vt 1.000000 0.236247
vt 0.982290 0.263830
vt 0.982290 0.235406
vt 0.342017 0.475296
vt 0.342522 0.403406
vt 0.324602 0.471930
vt 0.325115 0.398892
vt 0.982289 0.439623
vt 0.000604 0.998603
vt 0.000000 0.940968
vt 0.321480 0.515465
vt 0.300394 0.521718
vt 0.297437 0.464648
vt 0.275424 0.524007
vt 0.275967 1.000000
vt 0.274152 0.929951
vt 0.298863 0.926989
vt 0.300719 0.998602
vt 0.318508 0.922024
vt 0.680001 0.439624
vt 0.680002 0.399450
vt 0.366566 0.406208
vt 0.347657 0.334677
vt 0.330503 0.326773
vt 0.982289 0.399433
vt 0.268197 0.866097
vt 0.292478 0.858523
vt 0.311808 0.850181
vt 0.680002 0.354635
vt 0.371355 0.342110
vt 0.360824 0.285576
vt 0.345558 0.270628
vt 0.982290 0.354594
vt 0.256945 0.826718
vt 0.278487 0.809559
vt 0.295811 0.794201
vt 0.680002 0.308252
vt 0.381942 0.302632
vt 0.370852 0.238070
vt 0.982290 0.308216
vt 0.242658 0.764332
vt 0.270087 0.761730
vt 0.002146 0.884892
vt 0.318565 0.459210
vt 0.295105 0.406628
vt 0.619619 0.419823
vt 0.616567 0.366721
vt 0.640621 0.361151
vt 0.643857 0.417446
vt 0.658424 0.354611
vt 0.002979 0.464631
vt 0.000647 0.406582
vt 0.025233 0.890608
vt 0.010142 0.836466
vt 0.316327 0.403502
vt 0.294456 0.351322
vt 0.608791 0.324704
vt 0.631622 0.312521
vt 0.648530 0.301141
vt 0.000000 0.351230
vt 0.032141 0.848769
vt 0.022601 0.808464
vt 0.315736 0.353207
vt 0.296155 0.311808
vt 0.600013 0.305879
vt 0.618554 0.284495
vt 0.632321 0.266377
vt 0.001700 0.311785
vt 0.040519 0.829937
vt 0.054885 0.772575
vt 0.317107 0.321331
vt 0.301325 0.273323
vt 0.548521 0.251141
vt 0.584368 0.248503
vt 0.601621 0.237897
vt 0.006872 0.273307
vt 0.067726 0.759471
vt 0.323403 0.274414
vt 0.303408 0.264235
vt 0.547074 0.235858
vt 0.572171 0.235348
vt 0.590737 0.232511
vt 0.686710 0.509917
vt 0.680499 0.513557
vt 0.675275 0.483231
vt 0.620100 0.476528
vt 0.644348 0.475296
vt 0.661794 0.413242
vt 0.005937 0.521718
vt 0.442754 0.099393
vt 0.418090 0.108965
vt 0.442120 0.049559
vt 0.973681 0.144883
vt 0.195192 0.623682
vt 0.180902 0.589801
vt 0.197564 0.573510
vt 0.688612 0.144883
vt 0.692969 0.087775
vt 0.456612 0.065417
vt 0.469752 0.010644
vt 0.969324 0.087775
vt 0.157877 0.557503
vt 0.169855 0.534641
vt 0.696256 0.037861
vt 0.479573 0.033080
vt 0.495448 0.000000
vt 0.966037 0.037861
vt 0.143469 0.551511
vt 0.144287 0.524007
vt 0.697273 0.005067
vt 0.508943 0.035832
vt 0.494053 0.027082
vt 0.028801 0.031334
vt 0.034524 0.008147
vt 0.058234 0.000000
vt 0.160293 0.608252
vt 0.144477 0.585263
vt 0.128770 0.560246
vt 0.119306 0.538853
vt 0.291609 0.031334
vt 0.107558 0.675168
vt 0.530885 0.072710
vt 0.520753 0.014869
vt 0.022196 0.082064
vt 0.313568 0.087069
vt 0.291445 0.082064
vt 0.530374 0.150748
vt 0.509644 0.088951
vt 0.553480 0.140077
vt 0.546627 0.058356
vt 0.015274 0.158833
vt 0.085428 0.664344
vt 0.107297 0.597072
vt 0.317114 0.159471
vt 0.295288 0.158833
vt 0.570588 0.129801
vt 0.008951 0.264235
vt 0.091752 0.760148
vt 0.324602 0.257248
vt 0.391955 0.226764
vt 0.221936 0.632828
vt 0.324602 0.854226
vt 0.372909 0.914681
vt 0.348755 0.906582
vt 0.477377 0.086466
vt 0.492411 0.060711
vt 0.127606 0.613462
vt 1.000000 0.212516
vt 0.320394 0.994784
vt 0.686710 0.476528
vt 0.662292 0.471930
vt 0.965021 0.005067
vt 0.295337 0.008147
vt 0.313706 0.044048
vt 0.248909 0.750453
vt 0.675274 0.536984
vt 0.675275 0.854225
vt 0.626966 0.914681
vt 0.668802 0.884453
vt 0.651120 0.906581
vt 0.372909 0.476528
vt 0.331074 0.884453
vt 0.324602 0.536984
vt 0.331074 0.506756
vt 0.348755 0.484628
vt 0.626966 0.476528
vt 0.651120 0.484628
vt 0.668802 0.506756
vn -0.210900 -0.640500 0.738400
vn 0.210900 -0.640500 0.738400
vn 0.270300 0.117700 0.955500
vn -0.252300 0.409200 0.876900
vn 0.252300 0.408900 0.876900
vn 0.207100 0.763800 0.611300
vn -0.207100 0.764000 0.611000
vn 0.139800 0.940100 0.311000
vn -0.131800 0.958800 -0.251600
vn -0.146300 0.857400 -0.493500
vn 0.146300 0.857400 -0.493500
vn -0.974200 0.221700 0.043300
vn -0.995500 0.088000 0.034100
vn -0.718800 -0.693900 0.041800
vn 0.252600 0.645400 0.720800
vn 0.184800 0.829600 0.526900
vn -0.184800 0.829600 0.526900
vn -0.272000 0.086700 -0.958400
vn -0.260600 0.306300 -0.915600
vn 0.260600 0.306000 -0.915600
vn -0.229400 0.628300 -0.743300
vn 0.229500 0.627900 -0.743600
vn -0.179200 0.871500 -0.456500
vn 0.179200 0.871300 -0.456800
vn -0.228600 0.601000 -0.765800
vn -0.210500 -0.642900 -0.736400
vn 0.272000 0.086700 -0.958400
vn 0.131800 0.958800 -0.251700
vn -0.270300 0.117800 0.955500
vn -0.252600 0.645400 0.720800
vn -0.169000 0.867200 0.468400
vn 0.169100 0.867200 0.468400
vn 0.998200 0.005600 -0.059600
vn 0.995200 0.084000 -0.049200
vn 0.718700 -0.694100 -0.041600
vn 0.147600 0.946500 0.286700
vn -0.147600 0.946500 0.286700
vn 0.129800 0.991100 -0.029700
vn -0.129800 0.991100 -0.029700
vn 0.155900 0.924200 -0.348600
vn -0.155900 0.924200 -0.348600
vn 0.195300 0.781500 -0.592500
vn -0.195300 0.781500 -0.592500
vn 0.228600 0.601000 -0.765800
vn -0.139800 0.940100 0.310800
vn 0.974200 0.221700 0.043300
vn 0.995600 0.086200 0.035200
vn 0.911000 0.379300 0.161500
vn 0.804300 0.577500 0.139700
vn 0.562100 0.744800 0.359700
vn 0.499900 0.829100 0.250500
vn -0.804300 0.577600 0.139700
vn -0.911000 0.379300 0.161500
vn -0.499800 0.829100 0.250300
vn -0.562100 0.744800 0.359700
vn -0.714000 -0.673400 0.191400
vn -0.963800 0.034000 0.264200
vn -0.582100 -0.639200 0.502500
vn -0.748900 0.082600 0.657500
vn 0.713600 -0.674100 -0.190800
vn 0.964700 0.024400 -0.262300
vn 0.581600 -0.640800 -0.501100
vn 0.752000 0.060200 -0.656400
vn 0.210500 -0.642900 -0.736400
vn 0.718800 -0.693900 0.041800
vn 0.998100 0.008000 0.060500
vn 0.963800 0.034000 0.264200
vn 0.714000 -0.673400 0.191400
vn 0.748900 0.082600 0.657500
vn 0.582100 -0.639200 0.502500
vn -0.998100 0.008000 0.060500
vn -0.954200 0.140000 0.264200
vn -0.717600 0.307500 0.624800
vn 0.997400 0.035300 0.063100
vn 0.954300 0.139800 0.264200
vn 0.717700 0.307300 0.624900
vn -0.997400 0.035400 0.063100
vn -0.921400 0.325900 0.211600
vn -0.641900 0.614100 0.459200
vn 0.994600 0.089400 0.051900
vn 0.921400 0.325800 0.211700
vn 0.642000 0.613800 0.459300
vn -0.994600 0.089400 0.051900
vn 0.959300 0.096300 -0.265400
vn 0.732800 0.222700 -0.643000
vn -0.998200 0.005600 -0.059600
vn -0.997800 0.023500 -0.062100
vn -0.959300 0.096500 -0.265400
vn -0.964700 0.024500 -0.262300
vn -0.732700 0.222900 -0.642900
vn -0.752000 0.060200 -0.656400
vn 0.997800 0.023500 -0.062100
vn 0.940300 0.238400 -0.242700
vn 0.681200 0.487700 -0.545900
vn -0.996300 0.062200 -0.058700
vn -0.940300 0.238700 -0.242700
vn -0.681100 0.488100 -0.545700
vn 0.996300 0.062100 -0.058700
vn 0.904400 0.387000 -0.179500
vn 0.598800 0.715300 -0.360300
vn -0.995700 0.080500 -0.046100
vn -0.904100 0.386500 -0.181900
vn -0.598700 0.715400 -0.360100
vn 0.994800 0.090300 -0.045600
vn 0.840900 0.515900 -0.163400
vn 0.430000 0.876300 -0.217100
vn -0.999100 0.026000 -0.032600
vn -0.849200 0.506400 -0.149500
vn -0.423500 0.878600 -0.220600
vn 0.923200 0.330700 -0.195300
vn 0.564000 0.728600 -0.388700
vn -0.995500 0.072900 -0.060200
vn -0.924000 0.337200 -0.180100
vn -0.553400 0.736900 -0.388200
vn -0.718700 -0.694100 -0.041600
vn -0.713600 -0.674100 -0.190800
vn -0.581600 -0.640800 -0.501100
vn -0.932200 0.294400 0.210500
vn -0.699900 0.524400 0.484800
vn -0.607200 0.685300 0.402100
vn 0.929900 0.296400 0.217700
vn 0.898600 0.391100 0.198600
vn 0.607200 0.685300 0.402100
vn 0.699900 0.524400 0.484800
vn -0.906500 0.377800 0.188300
vn -0.521000 0.822200 0.228900
vn 0.845700 0.522000 0.111000
vn 0.521000 0.822200 0.228900
vn -0.852800 0.509800 0.112900
vn -0.478000 0.878000 -0.025700
vn 0.825600 0.564100 -0.013700
vn 0.478000 0.878000 -0.025700
vn -0.854400 0.501400 -0.136300
vn -0.825600 0.564100 -0.013700
vn -0.538100 0.796300 -0.276200
vn 0.982600 0.177700 0.053700
vn 0.972600 0.232600 -0.002400
vn 0.854400 0.501400 -0.136300
vn 0.538100 0.796300 -0.276200
vn 0.988100 0.141900 -0.058700
vn -0.899100 0.384200 -0.209700
vn -0.617200 0.649000 -0.444700
vn 0.899200 0.384000 -0.209700
vn 0.617300 0.648900 -0.444700
vn -0.988100 0.142400 -0.057100
vn -0.985000 0.166400 -0.045000
vn -0.928100 0.283500 -0.241300
vn -0.676300 0.490000 -0.549900
vn 0.928200 0.283400 -0.241200
vn 0.676400 0.490000 -0.549900
vn 0.995500 0.082200 -0.047700
vn -0.986100 0.157900 0.051900
vn -0.976300 0.216300 0.009900
vn 0.983100 0.175200 -0.053100
s 1
f 1/1/1 38/2/2 54/3/3
f 26/4/4 50/5/5 46/6/6
f 30/7/7 46/6/6 41/8/8
f 62/9/9 58/10/10 81/11/11
f 33/12/12 14/13/13 2/14/14
f 152/15/15 148/16/16 109/17/17
f 78/18/18 74/19/19 90/20/20
f 74/19/19 70/21/21 94/22/22
f 70/21/21 66/23/23 98/24/24
f 81/11/11 58/10/10 127/25/25
f 6/26/26 78/18/18 86/27/27
f 66/23/23 62/9/9 102/28/28
f 22/29/29 54/3/3 50/5/5
f 105/30/30 13/31/31 18/32/32
f 85/33/33 101/34/34 10/35/35
f 148/16/16 145/36/36 112/37/37
f 145/36/36 142/38/38 116/39/39
f 142/40/38 138/41/40 119/42/41
f 138/41/40 135/43/42 123/44/43
f 135/43/42 131/45/44 127/25/25
f 34/46/45 41/8/8 18/32/32
f 42/47/46 17/48/47 19/49/48
f 44/50/49 19/51/48 20/52/50
f 43/53/51 20/52/50 18/32/32
f 33/12/12 35/54/52 16/55/53
f 35/56/52 36/57/54 15/58/55
f 36/57/54 34/46/45 13/31/31
f 2/14/14 4/59/56 23/60/57
f 4/59/56 3/61/58 24/62/59
f 3/63/58 1/1/1 22/29/29
f 10/35/35 12/64/60 87/65/61
f 12/66/60 11/67/62 88/68/63
f 11/67/62 9/69/64 86/27/27
f 37/70/65 53/71/66 55/72/67
f 39/73/68 55/72/67 56/74/69
f 40/75/70 56/76/69 54/3/3
f 21/77/71 23/60/57 27/78/72
f 23/60/57 24/62/59 28/79/73
f 24/80/59 22/29/29 26/4/4
f 53/71/66 49/81/74 51/82/75
f 55/72/67 51/82/75 52/83/76
f 56/76/69 52/84/76 50/5/5
f 25/85/77 27/78/72 31/86/78
f 27/78/72 28/79/73 32/87/79
f 28/88/73 26/4/4 30/7/7
f 49/81/74 45/89/80 47/90/81
f 51/82/75 47/90/81 48/91/82
f 52/84/76 48/92/82 46/6/6
f 29/93/83 31/86/78 35/54/52
f 31/86/78 32/87/79 36/94/54
f 32/95/79 30/7/7 34/46/45
f 45/89/80 42/47/46 44/96/49
f 47/90/81 44/96/49 43/97/51
f 48/92/82 43/53/51 41/8/8
f 85/33/33 87/65/61 91/98/84
f 87/99/61 88/68/63 92/100/85
f 88/68/63 86/27/27 90/20/20
f 77/101/86 73/102/87 75/103/88
f 79/104/89 75/103/88 76/105/90
f 80/106/91 76/107/90 74/19/19
f 89/108/92 91/98/84 95/109/93
f 91/110/84 92/100/85 96/111/94
f 92/100/85 90/20/20 94/22/22
f 73/102/87 69/112/95 71/113/96
f 75/103/88 71/113/96 72/114/97
f 76/107/90 72/115/97 70/21/21
f 93/116/98 95/109/93 99/117/99
f 95/118/93 96/111/94 100/119/100
f 96/111/94 94/22/22 98/24/24
f 69/112/95 65/120/101 67/121/102
f 71/113/96 67/121/102 68/122/103
f 72/115/97 68/123/103 66/23/23
f 97/124/104 99/117/99 103/125/105
f 99/126/99 100/119/100 104/127/106
f 100/119/100 98/24/24 102/28/28
f 65/120/101 61/128/107 63/129/108
f 67/121/102 63/129/108 64/130/109
f 68/123/103 64/131/109 62/9/9
f 101/34/34 103/125/105 84/132/110
f 103/133/105 104/127/106 83/134/111
f 104/127/106 102/28/28 81/11/11
f 61/128/107 57/135/112 59/136/113
f 63/129/108 59/136/113 60/137/114
f 64/138/109 60/139/114 58/140/10
f 5/141/115 77/101/86 79/104/89
f 7/142/116 79/104/89 80/143/91
f 8/144/117 80/106/91 78/18/18
f 106/145/118 107/146/119 111/147/120
f 107/148/119 105/30/30 109/17/17
f 153/149/121 149/150/122 150/151/123
f 154/152/124 150/153/123 148/16/16
f 110/154/125 111/147/120 114/155/126
f 111/156/120 109/17/17 112/37/37
f 149/150/122 146/157/127 147/158/128
f 150/153/123 147/159/128 145/36/36
f 113/160/129 114/155/126 118/161/130
f 114/162/126 112/37/37 116/39/39
f 146/157/127 143/163/131 144/164/132
f 147/159/128 144/165/132 142/38/38
f 120/166/133 117/167/134 118/161/130
f 121/168/135 118/169/130 116/170/39
f 151/171/136 141/172/137 146/157/127
f 139/173/138 140/174/139 144/164/132
f 140/175/139 138/41/40 142/40/38
f 130/176/140 151/171/136 17/48/47
f 124/177/141 120/166/133 121/178/135
f 125/179/142 121/168/135 119/42/41
f 151/171/136 149/150/122 153/149/121
f 136/180/143 137/181/144 140/175/139
f 137/181/144 135/43/42 138/41/40
f 126/182/145 122/183/146 124/177/141
f 128/184/147 124/177/141 125/185/142
f 129/186/148 125/179/142 123/44/43
f 130/176/140 132/187/149 136/188/143
f 132/189/149 133/190/150 137/181/144
f 133/190/150 131/45/44 135/43/42
f 57/135/112 126/182/145 128/184/147
f 59/136/113 128/184/147 129/191/148
f 60/192/114 129/186/148 127/25/25
f 82/193/151 84/132/110 132/187/149
f 84/194/110 83/134/111 133/190/150
f 83/134/111 81/11/11 131/45/44
f 16/55/53 15/195/55 107/146/119
f 15/58/55 13/31/31 105/30/30
f 17/48/47 151/171/136 153/149/121
f 19/49/48 153/149/121 154/196/124
f 20/52/50 154/152/124 152/15/15
f 6/197/26 5/198/115 7/199/116
f 108/200/152 110/154/125 113/160/129
f 115/201/153 113/160/129 117/167/134
f 141/172/137 143/163/131 146/157/127
f 115/201/153 117/167/134 120/166/133
f 141/172/137 139/173/138 143/163/131
f 122/183/146 115/201/153 120/166/133
f 134/202/154 136/188/143 139/173/138
f 108/200/152 106/145/118 110/154/125
f 14/13/13 16/55/53 106/145/118
f 108/200/152 126/182/145 14/13/13
f 22/29/29 1/1/1 54/3/3
f 30/7/7 26/4/4 46/6/6
f 34/46/45 30/7/7 41/8/8
f 102/28/28 62/9/9 81/11/11
f 5/141/115 2/14/14 61/128/107
f 21/77/71 25/85/77 29/93/83
f 29/93/83 33/12/12 21/77/71
f 14/13/13 57/135/112 61/128/107
f 61/128/107 65/120/101 77/101/86
f 69/112/95 73/102/87 65/120/101
f 77/101/86 5/141/115 61/128/107
f 21/77/71 33/12/12 2/14/14
f 14/13/13 61/128/107 2/14/14
f 73/102/87 77/101/86 65/120/101
f 105/30/30 152/15/15 109/17/17
f 86/27/27 78/18/18 90/20/20
f 90/20/20 74/19/19 94/22/22
f 94/22/22 70/21/21 98/24/24
f 131/45/44 81/11/11 127/25/25
f 9/69/64 6/26/26 86/27/27
f 98/24/24 66/23/23 102/28/28
f 26/4/4 22/29/29 50/5/5
f 152/15/15 105/30/30 18/32/32
f 37/70/65 10/35/35 17/48/47
f 85/33/33 89/108/92 97/124/104
f 93/116/98 97/124/104 89/108/92
f 101/34/34 82/193/151 17/48/47
f 17/48/47 42/47/46 37/70/65
f 45/89/80 49/81/74 53/71/66
f 53/71/66 37/70/65 42/47/46
f 85/33/33 97/124/104 101/34/34
f 101/34/34 17/48/47 10/35/35
f 45/89/80 53/71/66 42/47/46
f 109/17/17 148/16/16 112/37/37
f 112/37/37 145/36/36 116/39/39
f 116/170/39 142/40/38 119/42/41
f 119/42/41 138/41/40 123/44/43
f 123/44/43 135/43/42 127/25/25
f 13/31/31 34/46/45 18/32/32
f 44/96/49 42/47/46 19/49/48
f 43/53/51 44/50/49 20/52/50
f 41/8/8 43/53/51 18/32/32
f 14/13/13 33/12/12 16/55/53
f 16/203/53 35/56/52 15/58/55
f 15/58/55 36/57/54 13/31/31
f 21/77/71 2/14/14 23/60/57
f 23/60/57 4/59/56 24/62/59
f 24/80/59 3/63/58 22/29/29
f 85/33/33 10/35/35 87/65/61
f 87/99/61 12/66/60 88/68/63
f 88/68/63 11/67/62 86/27/27
f 39/73/68 37/70/65 55/72/67
f 40/204/70 39/73/68 56/74/69
f 38/2/2 40/75/70 54/3/3
f 25/85/77 21/77/71 27/78/72
f 27/78/72 23/60/57 28/79/73
f 28/88/73 24/80/59 26/4/4
f 55/72/67 53/71/66 51/82/75
f 56/74/69 55/72/67 52/83/76
f 54/3/3 56/76/69 50/5/5
f 29/93/83 25/85/77 31/86/78
f 31/86/78 27/78/72 32/87/79
f 32/95/79 28/88/73 30/7/7
f 51/82/75 49/81/74 47/90/81
f 52/83/76 51/82/75 48/91/82
f 50/5/5 52/84/76 46/6/6
f 33/12/12 29/93/83 35/54/52
f 35/54/52 31/86/78 36/94/54
f 36/57/54 32/95/79 34/46/45
f 47/90/81 45/89/80 44/96/49
f 48/91/82 47/90/81 43/97/51
f 46/6/6 48/92/82 41/8/8
f 89/108/92 85/33/33 91/98/84
f 91/110/84 87/99/61 92/100/85
f 92/100/85 88/68/63 90/20/20
f 79/104/89 77/101/86 75/103/88
f 80/143/91 79/104/89 76/105/90
f 78/18/18 80/106/91 74/19/19
f 93/116/98 89/108/92 95/109/93
f 95/118/93 91/110/84 96/111/94
f 96/111/94 92/100/85 94/22/22
f 75/103/88 73/102/87 71/113/96
f 76/105/90 75/103/88 72/114/97
f 74/19/19 76/107/90 70/21/21
f 97/124/104 93/116/98 99/117/99
f 99/126/99 95/118/93 100/119/100
f 100/119/100 96/111/94 98/24/24
f 71/113/96 69/112/95 67/121/102
f 72/114/97 71/113/96 68/122/103
f 70/21/21 72/115/97 66/23/23
f 101/34/34 97/124/104 103/125/105
f 103/133/105 99/126/99 104/127/106
f 104/127/106 100/119/100 102/28/28
f 67/121/102 65/120/101 63/129/108
f 68/122/103 67/121/102 64/130/109
f 66/23/23 68/123/103 62/9/9
f 82/193/151 101/34/34 84/132/110
f 84/194/110 103/133/105 83/134/111
f 83/134/111 104/127/106 81/11/11
f 63/129/108 61/128/107 59/136/113
f 64/130/109 63/129/108 60/137/114
f 62/205/9 64/138/109 58/140/10
f 7/142/116 5/141/115 79/104/89
f 8/206/117 7/142/116 80/143/91
f 6/26/26 8/144/117 78/18/18
f 110/154/125 106/145/118 111/147/120
f 111/156/120 107/148/119 109/17/17
f 154/196/124 153/149/121 150/151/123
f 152/15/15 154/152/124 148/16/16
f 113/160/129 110/154/125 114/155/126
f 114/162/126 111/156/120 112/37/37
f 150/151/123 149/150/122 147/158/128
f 148/16/16 150/153/123 145/36/36
f 117/167/134 113/160/129 118/161/130
f 118/207/130 114/162/126 116/39/39
f 147/158/128 146/157/127 144/164/132
f 145/36/36 147/159/128 142/38/38
f 121/178/135 120/166/133 118/161/130
f 119/42/41 121/168/135 116/170/39
f 149/150/122 151/171/136 146/157/127
f 143/163/131 139/173/138 144/164/132
f 144/208/132 140/175/139 142/40/38
f 17/48/47 82/193/151 130/176/140
f 130/176/140 134/202/154 151/171/136
f 141/172/137 151/171/136 134/202/154
f 125/185/142 124/177/141 121/178/135
f 123/44/43 125/179/142 119/42/41
f 139/209/138 136/180/143 140/175/139
f 140/175/139 137/181/144 138/41/40
f 128/184/147 126/182/145 124/177/141
f 129/191/148 128/184/147 125/185/142
f 127/25/25 129/186/148 123/44/43
f 134/202/154 130/176/140 136/188/143
f 136/180/143 132/189/149 137/181/144
f 137/181/144 133/190/150 135/43/42
f 59/136/113 57/135/112 128/184/147
f 60/137/114 59/136/113 129/191/148
f 58/10/10 60/192/114 127/25/25
f 130/176/140 82/193/151 132/187/149
f 132/189/149 84/194/110 133/190/150
f 133/190/150 83/134/111 131/45/44
f 106/145/118 16/55/53 107/146/119
f 107/148/119 15/58/55 105/30/30
f 19/49/48 17/48/47 153/149/121
f 20/210/50 19/49/48 154/196/124
f 18/32/32 20/52/50 152/15/15
f 38/211/2 1/212/1 2/213/14
f 3/214/58 4/215/56 1/212/1
f 2/213/14 5/198/115 10/216/35
f 7/199/116 8/217/117 6/197/26
f 6/197/26 9/218/64 10/216/35
f 11/219/62 12/220/60 9/218/64
f 10/216/35 37/221/65 2/213/14
f 39/222/68 40/223/70 38/211/2
f 1/212/1 4/215/56 2/213/14
f 5/198/115 6/197/26 10/216/35
f 9/218/64 12/220/60 10/216/35
f 37/221/65 38/211/2 2/213/14
f 38/211/2 37/221/65 39/222/68
f 115/201/153 108/200/152 113/160/129
f 124/177/141 122/183/146 120/166/133
f 141/172/137 134/202/154 139/173/138
f 108/200/152 14/13/13 106/145/118
f 57/135/112 14/13/13 126/182/145
f 108/200/152 115/201/153 122/183/146
f 122/183/146 126/182/145 108/200/152
