# Blender v2.76 (sub 0) OBJ File: ''
# www.blender.org
o Cube_Cube.001
v -0.377425 0.021358 1.726423
v 0.332754 0.021307 1.726491
v 0.332754 0.127471 1.497738
v -0.377425 -0.099827 -1.256112
v -0.377425 0.149629 -1.096765
v 0.332754 0.149629 -1.096765
v 0.239831 1.009389 0.394179
v 0.233307 1.055527 0.080077
v -0.277977 1.055527 0.080077
v 0.259152 0.819022 -0.514100
v 0.290529 0.545470 -0.771340
v -0.335199 0.545470 -0.771341
v -0.377425 -0.202218 1.893482
v 0.332754 -0.202302 1.893517
v -0.377425 0.127480 1.497703
v 0.332754 0.173128 1.261615
v -0.335199 0.597131 0.996522
v -0.377425 0.173128 1.261615
v 0.239831 0.991248 -0.226612
v -0.303823 0.819022 -0.514100
v -0.377425 -0.694304 -1.383020
v 0.802444 -0.761045 -1.012012
v -0.848969 -0.680420 -0.995956
v 0.290529 0.597131 0.996523
v 0.259153 0.854607 0.703625
v -0.891696 -0.192890 1.034413
v -0.817048 0.268420 -0.493536
v -0.856322 -0.098873 -0.795432
v -0.284502 0.991248 -0.226612
v -0.303823 0.854607 0.703625
v -0.377425 -0.481443 1.952648
v 0.332754 -0.481484 1.952651
v -0.377425 -0.310072 -1.328152
v 0.332754 -0.099951 -1.256138
v 0.847025 -0.192886 1.034410
v 0.809900 -0.099494 -0.795954
v 0.769285 0.268261 -0.493636
v -0.377439 -0.488440 -1.356473
v 0.332754 -0.310137 -1.328157
v 0.333333 -0.537035 -1.375968
v -0.614086 -0.761046 1.908584
v -0.865749 -0.761045 1.579315
v -0.872691 -0.761045 1.450514
v 0.753293 0.608240 -0.092827
v 0.765983 0.495188 -0.281542
v 0.683806 0.657105 -0.397821
v 0.667800 0.799744 -0.159720
v 0.498293 0.775637 -0.482943
v 0.479860 0.939934 -0.208688
v 0.800585 -0.262978 1.386339
v 0.761127 -0.009879 1.148012
v 0.737908 -0.067756 1.442047
v 0.572891 0.124092 1.231175
v 0.566670 0.075158 1.482822
v -0.810650 0.495187 -0.281542
v -0.728474 0.657105 -0.397821
v -0.747362 0.406945 -0.632439
v -0.542963 0.775636 -0.482943
v -0.570993 0.508352 -0.734122
v -0.524531 0.939934 -0.208688
v -0.712471 0.799744 -0.159720
v -0.797963 0.608240 -0.092828
v 0.804754 -0.597812 -1.001526
v 0.738914 -0.757498 -1.202128
v 0.740069 -0.567239 -1.189828
v 0.567205 -0.747809 -1.340206
v 0.567517 -0.544993 -1.326883
v 0.333327 -0.734572 -1.389247
v -0.284502 1.009389 0.394179
v -0.524544 0.957006 0.379457
v -0.543063 0.808659 0.676039
v -0.712521 0.813894 0.339236
v -0.728847 0.683126 0.600671
v -0.798065 0.618398 0.284292
v 0.701145 0.406865 -0.632488
v 0.525908 0.508331 -0.734135
v 0.525441 0.560395 0.958248
v 0.699400 0.460030 0.853678
v 0.765794 0.322929 0.710833
v 0.566670 -0.124956 -1.210441
v 0.567473 -0.325814 -1.279267
v 0.737908 -0.193193 -1.085576
v 0.740906 -0.368601 -1.145694
v 0.800585 -0.286376 -0.915000
v 0.766719 0.511645 0.497717
v 0.684174 0.683126 0.600671
v 0.498392 0.808659 0.676039
v -0.377425 -0.761046 1.959522
v -0.611340 -0.488186 1.901826
v -0.782578 -0.506638 1.762980
v -0.792825 -0.761046 1.769418
v -0.845256 -0.531853 1.573313
v -0.518357 1.000766 0.081549
v -0.707254 0.851155 0.085570
v -0.794055 0.646782 0.091062
v -0.611340 -0.023026 1.694429
v -0.611340 -0.226289 1.846326
v -0.782578 -0.144319 1.607062
v -0.782578 -0.292109 1.717514
v -0.845256 -0.310021 1.487734
v -0.845256 -0.410850 -0.957689
v -0.782579 -0.360445 -1.142919
v -0.784130 -0.519152 -1.165849
v -0.611341 -0.323558 -1.278518
v -0.611763 -0.496796 -1.304608
v 0.800585 -0.531909 1.573318
v 0.737908 -0.506707 1.762985
v 0.743088 -0.761046 1.769282
v 0.566670 -0.488250 1.901831
v 0.568058 -0.761046 1.908547
v 0.332754 -0.761046 1.959522
v -0.811394 0.511646 0.497717
v -0.810467 0.322930 0.710832
v -0.744071 0.460030 0.853677
v -0.570111 0.560395 0.958247
v 0.749384 0.646782 0.091062
v 0.662583 0.851155 0.085570
v 0.667853 0.813894 0.339236
v 0.473686 1.000766 0.081549
v 0.479874 0.957006 0.379457
v 0.800585 -0.310069 1.487790
v 0.737908 -0.144393 1.607157
v 0.566670 -0.023101 1.694527
v 0.737908 -0.292234 1.717566
v 0.566670 -0.226414 1.846377
v -0.788112 0.025378 -0.946099
v -0.612823 0.116336 -1.056394
v -0.845256 -0.382042 1.541561
v 0.567918 0.116253 -1.056464
v 0.742565 0.025067 -0.946360
v -0.845256 -0.262967 1.386303
v -0.782578 -0.067741 1.441994
v -0.805799 -0.009881 1.148014
v -0.611340 0.075172 1.482770
v -0.617562 0.124091 1.231176
v 0.753399 0.618399 0.284292
v 0.806582 -0.427034 -0.963228
v -0.845256 -0.286161 -0.914964
v -0.782579 -0.192965 -1.085531
v -0.611341 -0.124762 -1.210400
v 0.800585 -0.382125 1.541600
v -0.848355 -0.549518 -0.977376
v -0.784435 -0.677660 -1.187987
v -0.611838 -0.682742 -1.329662
v 0.814447 -0.761045 1.450514
v 0.810946 -0.761045 1.579042
vt 0.843260 0.108031
vt 0.844951 0.232842
vt 0.798830 0.236462
vt 0.123681 0.105304
vt 0.178353 0.104871
vt 0.178516 0.236736
vt 0.512027 0.216701
vt 0.456300 0.214699
vt 0.456907 0.126849
vt 0.342333 0.221191
vt 0.273987 0.228981
vt 0.273962 0.112640
vt 0.892336 0.107426
vt 0.893959 0.233104
vt 0.797783 0.104870
vt 0.751326 0.241691
vt 0.645367 0.113228
vt 0.741841 0.099114
vt 0.742278 0.243854
vt 0.401606 0.216425
vt 0.342791 0.120327
vt 0.096071 0.344942
vt 0.319067 0.416168
vt 0.006574 0.417681
vt 0.644625 0.229940
vt 0.573544 0.221831
vt 0.824574 0.763138
vt 0.745622 0.472376
vt 0.817677 0.418160
vt 0.402204 0.125043
vt 0.573765 0.120631
vt 0.944628 0.103666
vt 0.945635 0.236307
vt 0.082205 0.104578
vt 0.123727 0.236654
vt 0.521183 0.486149
vt 0.503077 0.830711
vt 0.432675 0.773919
vt 0.047685 0.103302
vt 0.082445 0.237665
vt 0.038733 0.239454
vt 0.048730 0.967054
vt 0.001421 0.904630
vt 0.000208 0.880282
vt 0.368605 0.698181
vt 0.389955 0.733516
vt 0.356439 0.756749
vt 0.402250 0.307869
vt 0.344521 0.312338
vt 0.343280 0.266094
vt 0.401886 0.260582
vt 0.533915 0.419086
vt 0.484206 0.463053
vt 0.815116 0.325215
vt 0.756249 0.343326
vt 0.755797 0.293012
vt 0.805106 0.281446
vt 0.701559 0.511261
vt 0.668796 0.486925
vt 0.718190 0.443698
vt 0.344925 0.028770
vt 0.343676 0.075256
vt 0.274428 0.066508
vt 0.402513 0.080813
vt 0.402986 0.033344
vt 0.679017 0.545905
vt 0.597187 0.870394
vt 0.628350 0.872639
vt 0.627263 0.911112
vt 0.044440 0.327956
vt 0.007109 0.332259
vt 0.002077 0.289081
vt 0.041300 0.285115
vt 0.000208 0.241511
vt 0.512254 0.125008
vt 0.512001 0.080724
vt 0.573174 0.075484
vt 0.511450 0.033240
vt 0.657782 0.676687
vt 0.634289 0.626140
vt 0.674825 0.616652
vt 0.404346 0.801621
vt 0.274588 0.319724
vt 0.274434 0.274799
vt 0.742868 0.294788
vt 0.642719 0.275535
vt 0.750832 0.344016
vt 0.640114 0.319959
vt 0.422407 0.546839
vt 0.123425 0.281010
vt 0.083732 0.282703
vt 0.122118 0.324139
vt 0.552730 0.899500
vt 0.519250 0.887786
vt 0.538092 0.853730
vt 0.387129 0.587425
vt 0.351786 0.566859
vt 0.394375 0.518699
vt 0.571233 0.313638
vt 0.572464 0.267019
vt 0.999792 0.098542
vt 0.939679 0.058323
vt 0.992650 0.049042
vt 0.932900 0.015349
vt 0.926037 0.908446
vt 0.877853 0.905306
vt 0.884651 0.867616
vt 0.456831 0.082872
vt 0.456648 0.033895
vt 0.640026 0.531403
vt 0.670608 0.580196
vt 0.845513 0.066013
vt 0.890755 0.064790
vt 0.849770 0.021583
vt 0.837401 0.894855
vt 0.809961 0.872902
vt 0.843281 0.850090
vt 0.877451 0.388890
vt 0.868295 0.351525
vt 0.898711 0.347896
vt 0.085756 0.016555
vt 0.083710 0.059538
vt 0.050277 0.056723
vt 0.584846 0.383849
vt 0.579453 0.345956
vt 0.627767 0.344432
vt 0.935572 0.323888
vt 0.941401 0.281206
vt 0.993768 0.289125
vt 0.999792 0.240652
vt 0.693824 0.657303
vt 0.727755 0.699086
vt 0.698769 0.726300
vt 0.572429 0.028905
vt 0.641215 0.023366
vt 0.643506 0.067600
vt 0.361355 0.663655
vt 0.319483 0.664737
vt 0.326622 0.616553
vt 0.455696 0.307530
vt 0.456119 0.258672
vt 0.511348 0.261158
vt 0.542931 0.399910
vt 0.495319 0.407203
vt 0.852656 0.319537
vt 0.847593 0.275029
vt 0.510418 0.375942
vt 0.538633 0.354954
vt 0.892849 0.275598
vt 0.793671 0.387246
vt 0.274536 0.021174
vt 0.176998 0.059480
vt 0.856538 0.860628
vt 0.888327 0.021621
vt 0.628766 0.577710
vt 0.177298 0.282035
vt 0.477915 0.860675
vt 0.834941 0.830631
vt 0.795970 0.841166
vt 0.786789 0.784980
vt 0.812387 0.016767
vt 0.803344 0.060332
vt 0.754562 0.049887
vt 0.751248 0.100369
vt 0.329180 0.711365
vt 0.366787 0.627389
vt 0.510370 0.308625
vt 0.564804 0.862875
vt 0.590746 0.908352
vt 0.084903 0.325953
vt 0.853540 0.396349
vt 0.836003 0.361628
vt 0.121467 0.017597
vt 0.123080 0.060864
vt 0.750832 0.000208
vt 0.742676 0.048840
vt 0.556551 0.389835
vt 0.891236 0.318671
vt 0.174615 0.326495
vt 0.174166 0.014776
vt 0.928898 0.383069
vt 0.903912 0.385913
vt 0.021966 0.010087
vt 0.053913 0.013046
vt 0.013264 0.054053
vt 0.319067 0.881580
vt 0.018906 0.381430
vt 0.051665 0.354806
vt 0.230620 0.344432
vt 0.274846 0.353920
vt 0.307220 0.380177
vt 0.929035 0.845525
vt 0.928271 0.869914
vt 0.628337 0.407176
vt 0.628350 0.382800
vt 0.007088 0.101945
vt 0.093419 0.976863
vt 0.318307 0.905868
vt 0.305335 0.941770
vt 0.272149 0.967956
vt 0.015057 0.940615
vt 0.227638 0.977409
vt 0.983320 0.004040
vt 0.985651 0.333149
vt 0.753882 0.000208
vt 0.929035 0.344432
vn -0.112500 0.772100 0.625400
vn 0.112500 0.772100 0.625500
vn 0.113000 0.945500 0.305400
vn -0.108100 0.432000 -0.895400
vn -0.111400 0.588100 -0.801100
vn 0.111500 0.588000 -0.801100
vn 0.108800 0.949500 0.294300
vn 0.109000 0.993600 -0.030100
vn -0.109000 0.993600 -0.030100
vn 0.107700 0.779200 -0.617400
vn 0.109000 0.663100 -0.740600
vn -0.108900 0.663100 -0.740600
vn -0.109300 0.410700 0.905200
vn 0.109300 0.410600 0.905300
vn -0.112900 0.945500 0.305400
vn 0.125700 0.819700 0.558800
vn -0.109200 0.650300 0.751700
vn -0.125700 0.819700 0.558800
vn 0.108600 0.927300 -0.358300
vn -0.107700 0.779200 -0.617400
vn -0.122000 -0.625800 -0.770400
vn 0.708600 -0.693200 -0.131700
vn -0.748600 -0.646800 -0.145900
vn 0.109200 0.650300 0.751700
vn 0.108100 0.828900 0.548900
vn -0.987100 0.132300 0.090000
vn -0.976700 0.180400 -0.116300
vn -0.982100 0.123400 -0.142600
vn -0.108600 0.927300 -0.358300
vn -0.108100 0.828900 0.548900
vn -0.107000 0.115800 0.987500
vn 0.107000 0.115800 0.987500
vn -0.107300 0.240100 -0.964800
vn 0.108200 0.431900 -0.895400
vn 0.988200 0.123300 0.091000
vn 0.982100 0.126600 -0.139800
vn 0.977400 0.176700 -0.115700
vn -0.113500 0.144200 -0.983000
vn 0.104300 0.262600 -0.959200
vn 0.099700 0.138400 -0.985300
vn -0.325300 -0.648400 0.688300
vn -0.752100 -0.639100 0.160900
vn -0.724900 -0.688200 0.030400
vn 0.963300 0.261300 -0.062100
vn 0.975900 0.188500 -0.109900
vn 0.788500 0.505300 -0.350700
vn 0.782100 0.590300 -0.199700
vn 0.420700 0.723500 -0.547300
vn 0.420200 0.850700 -0.315900
vn 0.978100 0.169100 0.121400
vn 0.850900 0.437900 0.290100
vn 0.822300 0.532600 0.200600
vn 0.489000 0.725000 0.485000
vn 0.444500 0.850900 0.279900
vn -0.974600 0.195300 -0.109200
vn -0.788100 0.506400 -0.349900
vn -0.810800 0.422300 -0.405200
vn -0.420600 0.723700 -0.547200
vn -0.432100 0.619000 -0.655900
vn -0.420200 0.850700 -0.315900
vn -0.782100 0.590300 -0.199700
vn -0.963300 0.261200 -0.062100
vn 0.986400 0.011800 -0.163800
vn 0.605100 -0.655200 -0.452400
vn 0.813100 0.077900 -0.576900
vn 0.298300 -0.645400 -0.703200
vn 0.425200 0.126300 -0.896300
vn 0.039300 -0.660500 -0.749800
vn -0.108800 0.949500 0.294300
vn -0.420900 0.869800 0.257400
vn -0.422000 0.766600 0.484000
vn -0.782800 0.601500 0.159200
vn -0.789600 0.531000 0.307500
vn -0.963400 0.264100 0.044900
vn 0.813200 0.418700 -0.404300
vn 0.433300 0.618300 -0.655800
vn 0.430500 0.607800 0.667300
vn 0.807000 0.420100 0.415100
vn 0.975400 0.188100 0.115300
vn 0.431700 0.390800 -0.813000
vn 0.429800 0.243700 -0.869400
vn 0.814900 0.246800 -0.524400
vn 0.816700 0.163000 -0.553600
vn 0.947300 0.135300 -0.290500
vn 0.977500 0.187700 0.095900
vn 0.789600 0.531000 0.307500
vn 0.422000 0.766600 0.484000
vn -0.078400 -0.674900 0.733700
vn -0.429400 0.107100 0.896700
vn -0.814400 0.080400 0.574600
vn -0.630200 -0.629200 0.454900
vn -0.976500 0.064400 0.205800
vn -0.420600 0.906800 -0.027500
vn -0.780900 0.624300 -0.018900
vn -0.962400 0.271600 -0.008200
vn -0.441100 0.697300 0.565000
vn -0.433000 0.372400 0.820900
vn -0.819100 0.444200 0.363100
vn -0.814200 0.238300 0.529400
vn -0.985200 0.131900 0.109500
vn -0.975100 0.060700 -0.213300
vn -0.817500 0.138600 -0.559000
vn -0.822700 0.086100 -0.562000
vn -0.431900 0.215700 -0.875700
vn -0.436200 0.128200 -0.890700
vn 0.981600 0.042100 0.186000
vn 0.815800 0.073700 0.573600
vn 0.629500 -0.636400 0.445700
vn 0.429900 0.106100 0.896600
vn 0.326900 -0.649300 0.686700
vn 0.078600 -0.674900 0.733700
vn -0.977200 0.189100 0.096800
vn -0.975100 0.188900 0.116400
vn -0.807000 0.420100 0.415100
vn -0.430500 0.607800 0.667300
vn 0.962400 0.271600 -0.008200
vn 0.780900 0.624300 -0.018900
vn 0.782800 0.601500 0.159200
vn 0.420600 0.906800 -0.027500
vn 0.420900 0.869800 0.257400
vn 0.985200 0.131900 0.109500
vn 0.819000 0.444100 0.363300
vn 0.441100 0.697200 0.565100
vn 0.814200 0.238200 0.529500
vn 0.433000 0.372300 0.820900
vn -0.817800 0.359200 -0.449600
vn -0.438000 0.542500 -0.716900
vn -0.984800 0.070500 0.158700
vn 0.438900 0.542500 -0.716300
vn 0.819400 0.359300 -0.446700
vn -0.975600 0.179700 0.126400
vn -0.822300 0.532600 0.200500
vn -0.850900 0.437900 0.290100
vn -0.444500 0.850900 0.279900
vn -0.489000 0.725000 0.485000
vn 0.963400 0.264100 0.044900
vn 0.984700 0.051400 -0.166300
vn -0.968300 0.084600 -0.234900
vn -0.815300 0.240200 -0.526800
vn -0.431700 0.390000 -0.813400
vn 0.984800 0.070400 0.158700
vn -0.984100 0.031600 -0.174500
vn -0.656400 -0.592100 -0.467500
vn -0.365900 -0.590600 -0.719200
vn 0.711000 -0.702800 0.021600
vn 0.742300 -0.655200 0.140100
s 1
f 1/1/1 2/2/2 3/3/3
f 4/4/4 5/5/5 6/6/6
f 7/7/7 8/8/8 9/9/9
f 10/10/10 11/11/11 12/12/12
f 13/13/13 14/14/14 2/2/2
f 15/15/15 3/3/3 16/16/16
f 17/17/17 18/18/18 16/19/16
f 19/20/19 10/10/10 20/21/20
f 21/22/21 22/23/22 23/24/23
f 17/17/17 24/25/24 25/26/25
f 26/27/26 27/28/27 28/29/28
f 8/8/8 19/20/19 29/30/29
f 30/31/30 25/26/25 7/7/7
f 31/32/31 32/33/32 14/14/14
f 6/6/6 5/5/5 12/12/12
f 33/34/33 4/4/4 34/35/34
f 35/36/35 36/37/36 37/38/37
f 38/39/38 39/40/39 40/41/40
f 41/42/41 42/43/42 43/44/43
f 44/45/44 45/46/45 46/47/46
f 47/48/47 46/49/46 48/50/48
f 49/51/49 48/50/48 10/10/10
f 50/52/50 35/36/35 51/53/51
f 52/54/52 51/55/51 53/56/53
f 54/57/54 53/56/53 16/16/16
f 55/58/55 56/59/56 57/60/57
f 56/61/56 58/62/58 59/63/59
f 58/62/58 20/21/20 12/12/12
f 20/21/20 58/62/58 60/64/60
f 58/62/58 56/61/56 61/65/61
f 56/59/56 55/58/55 62/66/62
f 63/67/63 22/68/22 64/69/64
f 65/70/65 64/71/64 66/72/66
f 67/73/67 66/72/66 68/74/68
f 30/31/30 69/75/69 70/76/70
f 71/77/71 70/76/70 72/78/72
f 73/79/73 72/80/72 74/81/74
f 45/46/45 37/38/37 75/82/75
f 46/49/46 75/83/75 76/84/76
f 48/50/48 76/84/76 11/11/11
f 16/19/16 53/85/53 77/86/77
f 53/85/53 51/87/51 78/88/78
f 51/53/51 35/36/35 79/89/79
f 39/40/39 34/35/34 80/90/80
f 81/91/81 80/90/80 82/92/82
f 83/93/83 82/94/82 84/95/84
f 85/96/85 86/97/86 78/98/78
f 86/99/86 87/100/87 77/86/77
f 87/100/87 25/26/25 24/25/24
f 88/101/88 31/32/31 89/102/89
f 41/103/41 89/102/89 90/104/90
f 91/105/91 90/106/90 92/107/92
f 29/30/29 60/64/60 93/108/93
f 60/64/60 61/65/61 94/109/94
f 61/110/61 62/66/62 95/111/95
f 13/13/13 1/1/1 96/112/96
f 97/113/97 96/112/96 98/114/98
f 99/115/99 98/116/98 100/117/100
f 101/118/101 102/119/102 103/120/103
f 102/121/102 104/122/104 105/123/105
f 104/122/104 33/34/33 38/39/38
f 106/124/106 107/125/107 108/126/108
f 107/127/107 109/128/109 110/129/110
f 109/128/109 32/33/32 111/130/111
f 112/131/112 113/132/113 114/133/114
f 73/134/73 114/135/114 115/136/115
f 71/77/71 115/136/115 17/17/17
f 116/137/116 117/138/117 118/139/118
f 117/140/117 119/141/119 120/142/120
f 119/141/119 8/8/8 7/7/7
f 121/143/121 50/52/50 52/144/52
f 122/145/122 52/54/52 54/57/54
f 123/146/123 54/57/54 3/3/3
f 121/143/121 122/147/122 124/148/124
f 122/145/122 123/146/123 125/149/125
f 123/146/123 2/2/2 14/14/14
f 27/28/27 57/60/57 126/150/126
f 57/151/57 59/63/59 127/152/127
f 59/63/59 12/12/12 5/5/5
f 128/153/128 92/107/92 90/106/90
f 99/154/99 90/104/90 89/102/89
f 97/113/97 89/102/89 31/32/31
f 69/75/69 9/9/9 93/108/93
f 70/76/70 93/108/93 94/109/94
f 72/80/72 94/155/94 95/111/95
f 6/6/6 11/11/11 76/84/76
f 129/156/129 76/84/76 75/83/75
f 130/157/130 75/82/75 37/38/37
f 131/158/131 132/159/132 133/160/133
f 132/161/132 134/162/134 135/163/135
f 134/162/134 15/15/15 18/164/18
f 15/15/15 134/162/134 96/112/96
f 134/162/134 132/161/132 98/114/98
f 132/159/132 131/158/131 100/117/100
f 116/137/116 44/45/44 47/165/47
f 117/140/117 47/48/47 49/51/49
f 119/141/119 49/51/49 19/20/19
f 136/166/136 118/139/118 86/97/86
f 118/167/118 120/142/120 87/100/87
f 120/142/120 7/7/7 25/26/25
f 137/168/137 63/67/63 65/169/65
f 83/170/83 65/70/65 67/73/67
f 81/91/81 67/73/67 40/41/40
f 138/171/138 139/172/139 102/119/102
f 139/173/139 140/174/140 104/122/104
f 140/174/140 4/4/4 33/34/33
f 113/132/113 26/27/26 133/160/133
f 114/135/114 133/175/133 135/176/135
f 115/136/115 135/176/135 18/18/18
f 141/177/141 124/148/124 107/125/107
f 124/178/124 125/149/125 109/128/109
f 125/149/125 14/14/14 32/33/32
f 36/37/36 84/95/84 82/94/82
f 130/179/130 82/92/82 80/90/80
f 129/156/129 80/90/80 34/35/34
f 4/4/4 140/174/140 127/152/127
f 140/174/140 139/173/139 126/180/126
f 139/172/139 138/171/138 28/29/28
f 23/181/23 142/182/142 103/120/103
f 143/183/143 103/184/103 105/123/105
f 144/185/144 105/123/105 38/39/38
f 88/101/88 111/130/111 32/33/32
f 15/15/15 1/1/1 3/3/3
f 34/35/34 4/4/4 6/6/6
f 69/75/69 7/7/7 9/9/9
f 20/21/20 10/10/10 12/12/12
f 1/1/1 13/13/13 2/2/2
f 18/164/18 15/15/15 16/16/16
f 24/25/24 17/17/17 16/19/16
f 29/30/29 19/20/19 20/21/20
f 43/44/43 23/24/23 145/186/145
f 143/187/143 144/188/144 23/24/23
f 21/22/21 68/189/68 22/23/22
f 66/190/66 64/191/64 22/23/22
f 22/23/22 145/186/145 23/24/23
f 23/24/23 144/188/144 21/22/21
f 68/189/68 66/190/66 22/23/22
f 30/31/30 17/17/17 25/26/25
f 142/182/142 23/181/23 26/27/26
f 43/192/43 42/193/42 92/107/92
f 92/107/92 128/153/128 131/158/131
f 100/117/100 131/158/131 128/153/128
f 26/27/26 113/132/113 27/28/27
f 112/131/112 74/81/74 55/58/55
f 95/111/95 62/66/62 74/81/74
f 55/58/55 27/28/27 112/131/112
f 28/29/28 138/171/138 142/182/142
f 101/118/101 142/182/142 138/171/138
f 43/192/43 92/107/92 131/158/131
f 113/132/113 112/131/112 27/28/27
f 43/192/43 131/158/131 26/27/26
f 28/29/28 142/182/142 26/27/26
f 62/66/62 55/58/55 74/81/74
f 43/192/43 26/27/26 23/181/23
f 9/9/9 8/8/8 29/30/29
f 69/75/69 30/31/30 7/7/7
f 13/13/13 31/32/31 14/14/14
f 11/11/11 6/6/6 12/12/12
f 39/40/39 33/34/33 34/35/34
f 45/46/45 44/45/44 136/166/136
f 116/137/116 136/166/136 44/45/44
f 85/96/85 79/89/79 37/38/37
f 35/36/35 50/52/50 145/194/145
f 121/143/121 141/177/141 50/52/50
f 106/124/106 146/195/146 145/194/145
f 145/194/145 22/68/22 35/36/35
f 63/67/63 137/168/137 36/37/36
f 84/95/84 36/37/36 137/168/137
f 37/38/37 45/46/45 85/96/85
f 136/166/136 85/96/85 45/46/45
f 50/52/50 141/177/141 106/124/106
f 106/124/106 145/194/145 50/52/50
f 63/67/63 36/37/36 22/68/22
f 37/38/37 79/89/79 35/36/35
f 35/36/35 22/68/22 36/37/36
f 40/41/40 68/74/68 21/196/21
f 38/39/38 33/34/33 39/40/39
f 40/41/40 21/196/21 38/39/38
f 43/44/43 145/186/145 88/197/88
f 146/198/146 108/199/108 110/200/110
f 110/200/110 145/186/145 146/198/146
f 88/197/88 41/42/41 43/44/43
f 91/201/91 42/43/42 41/42/41
f 145/186/145 110/200/110 111/202/111
f 111/202/111 88/197/88 145/186/145
f 47/165/47 44/45/44 46/47/46
f 49/51/49 47/48/47 48/50/48
f 19/20/19 49/51/49 10/10/10
f 52/144/52 50/52/50 51/53/51
f 54/57/54 52/54/52 53/56/53
f 3/3/3 54/57/54 16/16/16
f 27/28/27 55/58/55 57/60/57
f 57/151/57 56/61/56 59/63/59
f 59/63/59 58/62/58 12/12/12
f 29/30/29 20/21/20 60/64/60
f 60/64/60 58/62/58 61/65/61
f 61/110/61 56/59/56 62/66/62
f 65/169/65 63/67/63 64/69/64
f 67/73/67 65/70/65 66/72/66
f 40/41/40 67/73/67 68/74/68
f 71/77/71 30/31/30 70/76/70
f 73/134/73 71/77/71 72/78/72
f 112/131/112 73/79/73 74/81/74
f 46/47/46 45/46/45 75/82/75
f 48/50/48 46/49/46 76/84/76
f 10/10/10 48/50/48 11/11/11
f 24/25/24 16/19/16 77/86/77
f 77/86/77 53/85/53 78/88/78
f 78/98/78 51/53/51 79/89/79
f 81/91/81 39/40/39 80/90/80
f 83/170/83 81/91/81 82/92/82
f 137/168/137 83/93/83 84/95/84
f 79/89/79 85/96/85 78/98/78
f 78/88/78 86/99/86 77/86/77
f 77/86/77 87/100/87 24/25/24
f 41/103/41 88/101/88 89/102/89
f 91/203/91 41/103/41 90/104/90
f 42/193/42 91/105/91 92/107/92
f 9/9/9 29/30/29 93/108/93
f 93/108/93 60/64/60 94/109/94
f 94/155/94 61/110/61 95/111/95
f 97/113/97 13/13/13 96/112/96
f 99/154/99 97/113/97 98/114/98
f 128/153/128 99/115/99 100/117/100
f 142/182/142 101/118/101 103/120/103
f 103/184/103 102/121/102 105/123/105
f 105/123/105 104/122/104 38/39/38
f 146/195/146 106/124/106 108/126/108
f 108/204/108 107/127/107 110/129/110
f 110/129/110 109/128/109 111/130/111
f 73/79/73 112/131/112 114/133/114
f 71/77/71 73/134/73 115/136/115
f 30/31/30 71/77/71 17/17/17
f 136/166/136 116/137/116 118/139/118
f 118/167/118 117/140/117 120/142/120
f 120/142/120 119/141/119 7/7/7
f 122/147/122 121/143/121 52/144/52
f 123/146/123 122/145/122 54/57/54
f 2/2/2 123/146/123 3/3/3
f 141/177/141 121/143/121 124/148/124
f 124/178/124 122/145/122 125/149/125
f 125/149/125 123/146/123 14/14/14
f 28/29/28 27/28/27 126/150/126
f 126/180/126 57/151/57 127/152/127
f 127/152/127 59/63/59 5/5/5
f 99/115/99 128/153/128 90/106/90
f 97/113/97 99/154/99 89/102/89
f 13/13/13 97/113/97 31/32/31
f 70/76/70 69/75/69 93/108/93
f 72/78/72 70/76/70 94/109/94
f 74/81/74 72/80/72 95/111/95
f 129/156/129 6/6/6 76/84/76
f 130/179/130 129/156/129 75/83/75
f 36/37/36 130/157/130 37/38/37
f 26/27/26 131/158/131 133/160/133
f 133/205/133 132/161/132 135/163/135
f 135/163/135 134/162/134 18/164/18
f 1/1/1 15/15/15 96/112/96
f 96/112/96 134/162/134 98/114/98
f 98/116/98 132/159/132 100/117/100
f 117/138/117 116/137/116 47/165/47
f 119/141/119 117/140/117 49/51/49
f 8/8/8 119/141/119 19/20/19
f 85/96/85 136/166/136 86/97/86
f 86/99/86 118/167/118 87/100/87
f 87/100/87 120/142/120 25/26/25
f 83/93/83 137/168/137 65/169/65
f 81/91/81 83/170/83 67/73/67
f 39/40/39 81/91/81 40/41/40
f 101/118/101 138/171/138 102/119/102
f 102/121/102 139/173/139 104/122/104
f 104/122/104 140/174/140 33/34/33
f 114/133/114 113/132/113 133/160/133
f 115/136/115 114/135/114 135/176/135
f 17/17/17 115/136/115 18/18/18
f 106/124/106 141/177/141 107/125/107
f 107/127/107 124/178/124 109/128/109
f 109/128/109 125/149/125 32/33/32
f 130/157/130 36/37/36 82/94/82
f 129/156/129 130/179/130 80/90/80
f 6/6/6 129/156/129 34/35/34
f 5/5/5 4/4/4 127/152/127
f 127/152/127 140/174/140 126/180/126
f 126/150/126 139/172/139 28/29/28
f 143/206/143 23/181/23 103/120/103
f 144/185/144 143/183/143 105/123/105
f 21/196/21 144/185/144 38/39/38
f 31/32/31 88/101/88 32/33/32
